# xmcd CD database file
#
# Track frame offsets:
#	150
#	11667
#	19521
#	27310
#	38139
#	49052
#	57762
#	66225
#	75055
#	83431
#
# Disc length: 1269 seconds
#
# Revision: 0
# Processed by: cddbd v1.5.2PL0 Copyright (c) Steve Scherf et al.
# Submitted via: CDex 1.51
#
DISCID=6504f30a
DTITLE=Stringbean (David Akeman) - Hee Haw Corn Shucker
DYEAR=2008
DGENRE=Country
TTITLE0=Stringbean And His Banjo
TTITLE1=Run, Little Rabbit, Run
TTITLE2=Chewin' Chewing Gum
TTITLE3=John Henry
TTITLE4=Banjo Pickin' Girl
TTITLE5=Big Ball In Nashville
TTITLE6=Keep My Skillet Good And Greasy
TTITLE7=Hey Old Man (Can You Play A Banjo)
TTITLE8=I'm The Man Who Rode A Mule Around The World
TTITLE9=Here, Rattler, Here
EXTD=YEAR: 2008
EXTT0=
EXTT1=
EXTT2=
EXTT3=
EXTT4=
EXTT5=
EXTT6=
EXTT7=
EXTT8=
EXTT9=
PLAYORDER=
